<?xml version="1.0" encoding="UTF-8" standalone="no"?>
<!-- Created with Inkscape (http://www.inkscape.org/) -->

<svg
   version="1.1"
   id="svg1"
   width="3054"
   height="973"
   viewBox="0 0 3054 973"
   xmlns="http://www.w3.org/2000/svg"
   xmlns:svg="http://www.w3.org/2000/svg">
  <defs
     id="defs1" />
  <g
     id="g1">
    <path
       style="fill:#000000"
       d="m 1463.2264,973.08286 c -1.9972,-2.0333 -26.1847,-4.4857 -49.512,-5.0202 -13.2224,-0.3029 -13.2224,-0.3029 -18.5747,-5.7852 -5.6059,-5.7418 -12.1434,-8.6637 -19.3844,-8.6637 -2.0316,0 -4.1281,-0.8096 -5.4061,-2.0877 -1.1482,-1.1482 -4.9909,-2.8926 -8.5393,-3.8766 -4.3298,-1.2006 -8.0011,-3.0856 -11.1624,-5.7312 -2.6672,-2.2321 -6.8394,-4.5301 -9.6179,-5.2974 -3.332,-0.9201 -6.7767,-3.0232 -10.7317,-6.5522 -10.1132,-9.0239 -13.5219,-9.0999 -17.1317,-0.3818 -0.8928,2.1561 -3.5057,5.0605 -6.5889,7.3237 -2.8101,2.0628 -6.1071,5.1799 -7.3266,6.9269 -1.2195,1.7469 -3.9001,5.2013 -5.9569,7.6763 -2.0568,2.475 -4.737,7.1096 -5.9559,10.2991 -3.5798,9.3669 -13.0016,11.2492 -15.4035,3.0773 -0.7645,-2.6013 -2.7413,-5.5052 -5.3548,-7.8664 -6.7371,-6.0866 -5.7717,-10.037 4.6235,-18.9191 3.9206,-3.35 11.4985,-9.9159 16.8398,-14.5909 5.3412,-4.675 11.5524,-9.4 13.8026,-10.5 6.6972,-3.2739 6.2324,-5.6937 -3.2834,-17.0942 -4.641,-5.5601 -8.2851,-10.9205 -8.6675,-12.7497 -0.3629,-1.7359 -1.9101,-5.1811 -3.438,-7.6561 -1.528,-2.475 -3.0702,-6.525 -3.4272,-9 -0.3569,-2.475 -1.291,-6.525 -2.0757,-9 -4.1669,-13.1436 -4.7438,-46.6095 -0.9908,-57.4829 1.4172,-4.1061 3.1914,-10.9647 3.9426,-15.2414 2.136,-12.1607 3.1393,-15.1566 6.0504,-18.0658 2.4631,-2.4616 2.6655,-3.2192 2.2085,-8.2682 -0.533,-5.8873 -0.079,-7.1876 4.6159,-13.2213 2.4601,-3.1617 2.7509,-4.2021 2.157,-7.7174 -0.6345,-3.7554 -0.4207,-4.3068 2.8239,-7.283 5.1806,-4.7522 10.6548,-11.9598 10.6659,-14.0432 0.01,-1.0028 1.855,-3.4778 4.1105,-5.5 2.2554,-2.0223 4.7989,-5.0268 5.6523,-6.6768 2.0255,-3.9162 11.2307,-14.4916 12.6469,-14.5294 1.755,-0.047 7.5703,-5.7625 8.5891,-8.4419 0.5117,-1.3458 2.7779,-3.3895 5.036,-4.5416 2.2581,-1.152 4.9995,-3.6095 6.092,-5.461 1.0924,-1.8516 3.2005,-3.7993 4.6846,-4.3282 1.4841,-0.5289 3.7047,-2.0273 4.9346,-3.3298 1.23,-1.3025 5.505,-5.7549 9.5,-9.8942 7.5444,-7.8169 13.0483,-14.4064 15.9617,-19.1099 1.0075,-1.6265 3.1465,-3.1413 5.2599,-3.7248 4.8259,-1.3325 13.5421,-7.8586 13.5421,-10.1394 0,-1.0064 2.025,-3.6123 4.5,-5.7909 2.475,-2.1786 4.5,-4.4861 4.5,-5.1279 0,-2.2839 9.2423,-10.9972 15.8181,-14.9127 3.675,-2.1883 7.7728,-5.1464 9.1062,-6.5735 1.3334,-1.4272 3.1942,-2.5948 4.1351,-2.5948 0.941,0 4.1706,-2.025 7.1769,-4.5 3.0064,-2.475 5.9379,-4.5 6.5145,-4.5 0.5766,0 3.444,-1.8 6.3719,-4 2.9279,-2.2 5.8636,-4 6.5237,-4 0.6601,0 2.5437,-1.1305 4.1857,-2.5122 1.6421,-1.3818 4.8566,-3.1724 7.1435,-3.9792 2.2868,-0.8069 5.9477,-2.9991 8.1354,-4.8717 2.1877,-1.8726 5.3848,-3.6861 7.1048,-4.0301 1.7199,-0.344 5.5609,-2.5337 8.5356,-4.8661 12.2321,-9.5908 13.9187,-10.6653 17.7486,-11.307 4.9755,-0.8337 8.9613,-2.8266 10.7443,-5.3721 1.1726,-1.6741 7.1452,-5.4862 16.7557,-10.6945 1.375,-0.7451 3.1874,-1.3576 4.0275,-1.361 0.8401,0 2.4688,-0.6654 3.6192,-1.4713 1.1505,-0.8058 4.5817,-2.3967 7.6251,-3.5353 3.0433,-1.1387 7.5028,-3.5741 9.9099,-5.4121 2.4072,-1.8381 6.8386,-4.3889 9.8475,-5.6685 3.0089,-1.2797 7.6031,-3.5702 10.2092,-5.09 6.2828,-3.664 12.6536,-6.2613 21.7616,-8.8717 4.125,-1.1823 8.429,-3.0063 9.5645,-4.0534 1.1354,-1.0471 2.9605,-1.9038 4.0557,-1.9038 1.0952,0 3.5161,-1.125 5.3798,-2.5 1.8637,-1.375 3.9392,-2.5 4.6121,-2.5 0.673,0 3.4721,-1.1294 6.2202,-2.5097 2.7482,-1.3803 7.3203,-2.9504 10.1604,-3.489 2.8401,-0.5386 6.2588,-1.8406 7.5971,-2.8933 1.3384,-1.0528 4.7907,-2.4658 7.6718,-3.1401 2.8811,-0.6743 7.9907,-2.748 11.3547,-4.6082 4.6403,-2.5661 8.1395,-3.6347 14.5,-4.4283 10.4369,-1.3021 14.3523,-2.1747 24.1646,-5.3854 4.2795,-1.4003 8.5545,-2.5604 9.5,-2.5778 0.9455,-0.017 2.5926,-0.6925 3.6602,-1.5 1.0677,-0.8076 3.7677,-1.4748 6,-1.4828 2.2324,-0.01 5.8589,-0.6414 8.0589,-1.4076 5.0278,-1.751 29.7085,-4.8188 31.925,-3.9682 0.9077,0.3483 3.5459,-0.067 5.8627,-0.9237 4.8359,-1.7874 20.0929,-4.4203 33.2123,-5.7315 4.95,-0.4947 10.8,-1.2229 13,-1.6183 11.7227,-2.1067 58.3051,-4.0711 66.3357,-2.7974 3.1685,0.5025 5.3832,0.2154 8.2261,-1.0666 3.0932,-1.3949 5.1756,-1.6042 10.1642,-1.0218 3.4507,0.4029 11.0122,1.0289 16.8034,1.3911 8.7953,0.5501 10.9997,1.0291 13.3849,2.9086 5.5735,4.3917 20.4775,1.4138 20.6135,-4.1187 0.015,-0.6223 1.3653,-2.899 3,-5.0595 1.6347,-2.1605 2.9722,-4.353 2.9722,-4.8723 0,-0.5193 4.275,-5.1434 9.5,-10.2758 5.225,-5.1324 9.5,-9.8907 9.5,-10.5739 0,-2.6909 5.3191,-8.8001 8.6066,-9.885 1.8664,-0.616 3.4061,-1.1976 3.4216,-1.2924 1.171,-7.1718 11.9713,-26.6867 16.7497,-30.2647 2.0471,-1.5329 4.8377,-4.1642 6.2013,-5.8474 2.5756,-3.1794 7.7548,-8.3821 24.5825,-24.6939 5.4661,-5.2985 12.4133,-12.4616 15.4383,-15.9181 8.3102,-9.4954 10.1436,-11.2731 14.5484,-14.1061 3.426,-2.2035 4.0639,-3.1491 4.149,-6.1505 0.055,-1.9507 1.496,-6.2928 3.2016,-9.6491 1.7055,-3.3564 3.101,-6.8921 3.101,-7.8572 0,-20.4886 22.9735,-29.8526 27.9448,-11.3903 0.7973,2.961 1.7358,4.0491 4.288,4.9718 3.2672,1.1812 3.2672,1.1812 2.9126,25.8568 -0.2138,14.8767 0.1014,28.2987 0.7937,33.7991 1,7.9446 0.9356,9.6327 -0.4981,13.0642 -1.1309,2.7066 -2.0467,10.1063 -2.9243,23.629 -0.7028,10.8287 -1.6401,20.2746 -2.0828,20.9909 -0.4427,0.7164 -0.8884,5.3729 -0.9904,10.3478 -0.102,4.9749 -0.6796,13.9953 -1.2836,20.0453 -1.0176,10.1929 -1.617,22.0603 -2.5257,50 -0.1967,6.05 -0.8453,16.4 -1.4414,23 -0.596,6.6 -1.0977,24.0296 -1.1148,38.7326 -0.017,14.7029 -0.2832,27.7529 -0.5912,29 -0.3081,1.247 0.1265,4.5174 0.9657,7.2674 0.8392,2.75 1.5307,8.3779 1.5367,12.5066 0.01,4.1286 0.5017,9.0786 1.1017,11 1.9258,6.1668 3.0502,20.9066 3.4069,44.6608 0.3862,25.7183 0.6283,26.7409 7.0525,29.7894 3.5992,1.708 5.4409,5.5808 3.7119,7.8061 -0.5286,0.6804 -3.0538,3.8421 -5.6116,7.026 -3.3851,4.2137 -4.6506,6.6701 -4.6506,9.0275 0,1.7812 -0.7614,4.3512 -1.692,5.711 -4.9563,7.2425 -17.308,5.4857 -17.308,-2.4617 0,-2.4444 -0.261,-2.5657 -5.5199,-2.5657 -14.228,0 -20.442,-9.76 -21.0104,-33 -0.1682,-6.875 -0.6174,-14.6928 -0.9982,-17.3728 -0.5147,-3.6222 -0.3433,-5.0885 0.668,-5.7136 3.7534,-2.32 1.3943,-46.9374 -2.7416,-51.8526 -1.3645,-1.6216 -3.1979,-5.1113 -4.0743,-7.7547 -0.8763,-2.6435 -2.5708,-6.1563 -3.7656,-7.8063 -1.1947,-1.65 -2.9893,-5.1849 -3.988,-7.8552 -0.9986,-2.6703 -3.1104,-6.3297 -4.6929,-8.132 -1.5824,-1.8023 -2.8771,-3.7949 -2.8771,-4.4281 0,-3.2668 -5.3443,-11.2256 -9.4218,-14.0309 -2.4446,-1.682 -4.7651,-4.0697 -5.1567,-5.306 -0.3915,-1.2363 -3.6881,-5.1728 -7.3258,-8.7478 -3.6377,-3.575 -8.109,-8.1875 -9.9361,-10.25 -1.8271,-2.0625 -4.073,-3.7599 -4.9908,-3.772 -3.3875,-0.045 -9.8517,-3.8763 -16.4791,-9.7682 -5.2167,-4.6377 -7.7907,-6.2105 -11,-6.7214 -2.3043,-0.3668 -6.6066,-1.7518 -9.5605,-3.0777 -2.954,-1.3259 -7.2573,-2.4107 -9.563,-2.4107 -3.3842,0 -4.758,-0.5953 -7.1291,-3.0893 -8.6481,-9.0962 -37.3736,-9.5263 -42.1431,-0.6311 -1.7267,3.2204 -1.7267,3.2204 -2.2603,-0.2796 -1.1551,-7.5754 -14.3661,-0.472 -13.8825,7.4644 0.1017,1.6695 -0.146,4.0481 -0.5505,5.2856 -0.4535,1.3873 -0.3263,2.25 0.3319,2.25 0.5871,0 1.0705,-0.7875 1.0742,-1.75 0.01,-1.6697 4.5199,-5.3941 8.2432,-6.8022 2.0469,-0.7741 2.1343,-0.3854 0.647,2.8788 -0.6066,1.3315 -2.7441,3.3509 -4.75,4.4877 -2.0058,1.1368 -7.4108,6.0926 -12.0111,11.0129 -6.2571,6.6925 -10.0026,9.7694 -14.8686,12.2146 -5.3469,2.6868 -7.5931,4.6616 -12.6202,11.0954 -5.8572,7.496 -16.1321,13.8978 -22.2586,13.8681 -2.8754,-0.014 -15.8751,10.1846 -19.326,15.1616 -2.311,3.3329 -5.5334,6.3782 -8.6258,8.1515 -2.9656,1.7006 -6.257,4.7584 -8.2435,7.6584 -2.0228,2.9532 -4.5466,5.2818 -6.5,5.9976 -10.2444,3.7538 -13.5901,4.8574 -17.1193,5.6471 -3.3756,0.7553 -4.4379,1.7197 -7.5764,6.8785 -2.0967,3.4462 -5.1075,6.8512 -7.0739,8 -3.3707,1.9691 -15.9236,14.2838 -15.9236,15.6215 0,1.1157 -15.551,10.7577 -22.2828,13.816 -3.4195,1.5535 -6.7899,3.7882 -7.4898,4.9661 -0.6999,1.1778 -3.7529,3.2385 -6.7844,4.5791 -4.3713,1.9332 -5.8209,3.1774 -7.0056,6.0129 -1.5786,3.778 -3.0993,4.6504 -12.2893,7.0504 -4.2384,1.1068 -6.4231,2.5007 -10.5,6.6992 -9.0171,9.2859 -13.8669,12.6006 -22.7991,15.5827 -4.6351,1.5474 -9.996,3.9066 -11.9132,5.2428 -8.5902,5.9867 -14.7136,10.9426 -21.8033,17.6463 -10.4518,9.8829 -17.9333,15.283 -21.1736,15.283 -1.4739,0 -4.3376,1.125 -6.3638,2.5 -2.0261,1.375 -4.0472,2.5 -4.4912,2.5 -1.8,0 -14.6158,9.1764 -18.5494,13.2818 -3.0044,3.1355 -5.5442,4.7299 -8.8675,5.5668 -4.0044,1.0083 -4.9596,1.7669 -6.8143,5.412 -1.1864,2.3316 -3.7482,5.5894 -5.6928,7.2394 -1.9446,1.65 -5.5931,4.8997 -8.1078,7.2216 -3.9133,3.6134 -5.207,4.2258 -8.978,4.25 -3.9694,0.026 -4.8611,0.5144 -9,4.9335 -2.5268,2.6979 -6.609,5.9093 -9.0717,7.1365 -6.7934,3.3852 -12.0314,6.9328 -17.2296,11.6693 -2.5889,2.359 -5.3757,4.2891 -6.193,4.2891 -2.1698,0 -13.145,10.4877 -14.5665,13.9196 -1.4114,3.4073 -6.8119,7.3313 -12.5333,9.1066 -2.2,0.6827 -5.35,1.9668 -7,2.8536 -1.65,0.8869 -4.9835,2.2892 -7.4078,3.1163 -3.6313,1.2389 -5.2247,2.6847 -9.0444,8.2066 -2.5501,3.6866 -6.8666,8.3852 -9.5922,10.4413 -2.7256,2.0562 -5.3454,4.3809 -5.8217,5.166 -0.4764,0.7851 -4.1886,2.9625 -8.2494,4.8387 -9.176,4.2395 -13.7905,8.2199 -16.4194,14.1632 -3.1088,7.0278 -5.984,9.2143 -14.4727,11.006 -8.6593,1.8277 -24.8893,12.3032 -28.0451,18.1015 -2.7361,5.0272 -3.7411,5.768 -11.7445,8.6568 -8.3067,2.9983 -9.4434,16.4238 -1.3906,16.4238 0.7217,0 3.126,0.8763 5.3429,1.9474 2.2438,1.0841 4.9916,1.6962 6.1981,1.3807 1.5304,-0.4002 4.4422,0.9076 9.9071,4.4496 6.3625,4.1238 9.4302,5.3831 17.2397,7.077 5.225,1.1333 11.1963,2.9357 13.2696,4.0051 2.6503,1.3672 4.9394,1.7877 7.7091,1.4162 3.0183,-0.4049 5.114,0.086 8.962,2.0978 2.7624,1.4444 6.1008,2.6262 7.4188,2.6262 1.3179,0 4.0118,0.675 5.9863,1.5 1.9745,0.825 4.8995,1.5 6.5,1.5 1.6005,0 4.5255,0.675 6.5,1.5 2.7003,1.1282 7.7487,1.5043 20.3721,1.5173 10.8277,0.011 19.2248,0.5349 23.6666,1.4759 3.7864,0.8022 7.2219,1.25 7.6343,0.9951 0.4125,-0.2549 2.9395,-0.5071 5.6156,-0.5604 2.6761,-0.053 8.5379,-0.5458 13.0262,-1.0945 5.7955,-0.7084 10.376,-0.6616 15.805,0.1613 4.8054,0.7285 8.0883,0.8098 8.8394,0.219 1.3791,-1.0846 10.4997,-2.0568 26.195,-2.7921 6.05,-0.2834 13.025,-0.9209 15.5,-1.4166 2.475,-0.4957 8.55,-1.1852 13.5,-1.5321 4.95,-0.3469 11.2587,-1.272 14.0193,-2.0557 2.7607,-0.7838 9.2857,-1.8669 14.5,-2.4069 14.1063,-1.4609 25.0942,-3.4376 38.4807,-6.9225 9.1363,-2.3786 13.1932,-2.9821 17,-2.5289 3.3421,0.3978 8.4817,-0.1262 15.5,-1.5801 7.478,-1.5491 12.5263,-2.0297 17.5404,-1.67 6.3176,0.4534 9.7957,-0.2277 11.4596,-2.2437 1.2844,-1.5563 7.5471,-3.4557 19.9724,-6.0577 7.4402,-1.5581 14.9202,-3.5452 16.6223,-4.4159 1.7021,-0.8707 7.0321,-2.2697 11.8445,-3.1089 8.745,-1.525 17.0045,-3.6033 32.0608,-8.0675 4.4,-1.3046 11.825,-2.8342 16.5,-3.3992 8.4548,-1.0216 19.0843,-4.6485 26,-8.8713 2.7421,-1.6744 5.1045,-2.138 10.9098,-2.1409 6.7587,0 8.2115,-0.399 16.5331,-4.5014 7.8929,-3.891 9.8607,-4.4644 14.5902,-4.2519 4.3256,0.1944 6.1254,-0.2237 8.6213,-2.0024 1.7349,-1.2364 3.724,-2.248 4.4202,-2.248 0.6962,0 4.2268,-1.3095 7.8456,-2.91 3.6189,-1.6006 10.8548,-3.6691 16.0798,-4.5968 14.7413,-2.6174 22.3189,-4.6188 24.5,-6.4711 2.6326,-2.2357 6.8795,-3.7273 12.9138,-4.5356 2.7025,-0.362 6.5209,-1.5196 8.4852,-2.5724 1.9642,-1.0528 4.4086,-1.9141 5.4318,-1.9141 1.0233,0 3.15,-0.9183 4.7262,-2.0406 4.3188,-3.0753 13.9963,-6.1373 17.443,-5.5192 2.9404,0.5274 7.6849,-1.3206 16.4844,-6.4207 1.9164,-1.1108 4.7471,-2.0195 6.2905,-2.0195 1.5433,0 4.0254,-0.8838 5.5156,-1.964 1.4902,-1.0802 5.4095,-2.3875 8.7095,-2.9052 3.9154,-0.6142 8.4321,-2.3419 13,-4.9727 4.497,-2.59 8.8875,-4.2804 12.2788,-4.7275 3.0886,-0.4072 7.0303,-1.8328 9.5,-3.4358 3.1878,-2.0691 5.9809,-2.8938 11.4093,-3.3686 8.1284,-0.7109 11.8899,-1.896 14.8667,-4.6838 1.2261,-1.1482 5.6882,-2.6848 11.0643,-3.8101 4.9553,-1.0373 11.2271,-3.0664 13.9373,-4.5091 2.7102,-1.4428 5.6901,-2.6232 6.622,-2.6232 0.9318,0 5.174,-1.34 9.4271,-2.9777 4.2531,-1.6377 11.5942,-3.9211 16.3137,-5.0742 4.7194,-1.1531 9.8001,-2.9631 11.2903,-4.0223 1.4902,-1.0592 3.0382,-1.9258 3.4399,-1.9258 0.4017,0 3.7942,-1.8512 7.5389,-4.1138 6.1525,-3.7174 7.2364,-4.0496 11.2495,-3.4478 4.0795,0.6117 4.7511,0.3885 8.2516,-2.7419 4.7157,-4.2174 7.4708,-5.6965 10.61,-5.6965 1.337,0 3.6649,-0.9707 5.1732,-2.1571 2.0906,-1.6445 4.5584,-2.269 10.3848,-2.6281 9.0034,-0.555 12.1974,-1.9494 15.0549,-6.5729 2.2342,-3.615 4.0275,-4.5547 13.5877,-7.1196 7.6624,-2.0558 11.5,-3.5649 11.5,-4.5223 0,-1.0044 4.5436,-2.6892 9.4662,-3.5103 2.1815,-0.3638 5.1065,-1.4333 6.5,-2.3767 1.3936,-0.9434 5.9088,-2.7846 10.0338,-4.0917 4.125,-1.3071 10.5994,-3.6466 14.3875,-5.199 3.7882,-1.5523 8.1372,-2.8223 9.6646,-2.8223 3.8564,0 17.8103,-5.4737 23.4108,-9.1833 4.2042,-2.7847 5.1579,-3.0191 9.9778,-2.4527 5.2074,0.6121 5.3904,0.5461 8.0063,-2.8834 2.6351,-3.4548 10.973,-8.4806 14.0694,-8.4806 2.0245,0 7.3982,-2.708 9.9836,-5.031 1.1,-0.9884 4.7,-2.5405 8,-3.4491 10.0977,-2.7803 24.1109,-8.4527 28.5,-11.5365 1.375,-0.966 4.075,-2.2219 6,-2.7907 8.6253,-2.5487 14.6489,-5.4126 17.9411,-8.5301 3.7024,-3.5061 7.5554,-5.3021 19.8696,-9.262 4.0209,-1.293 8.6239,-3.286 10.2288,-4.4288 1.605,-1.1428 7.7652,-4.1043 13.6893,-6.581 5.9242,-2.4768 11.7236,-5.6029 12.8875,-6.947 1.4727,-1.7006 3.1539,-2.4438 5.5275,-2.4438 1.8762,0 4.4216,-0.7078 5.6565,-1.5727 1.235,-0.865 7.0726,-3.9717 12.9725,-6.9037 5.9,-2.9321 12.2623,-6.4884 14.1385,-7.903 1.8763,-1.4146 5.0263,-3.0981 7,-3.7412 1.9738,-0.643 7.2562,-2.9039 11.7386,-5.0243 4.4825,-2.1203 8.8917,-3.8551 9.7983,-3.8551 2.2183,0 7.261,-2.5597 18.1424,-9.2091 4.9998,-3.0552 10.1748,-5.8918 11.5,-6.3034 1.3252,-0.4117 4.2094,-1.526 6.4094,-2.4764 2.2,-0.9503 5.2707,-2.2471 6.8238,-2.8817 1.5531,-0.6346 4.4781,-2.4449 6.5,-4.0228 2.0219,-1.578 5.7809,-3.6461 8.3534,-4.5959 2.5725,-0.9498 5.6665,-2.7799 6.8756,-4.0669 1.2091,-1.2871 3.5864,-2.645 5.2829,-3.0176 4.7368,-1.0403 11.6258,-4.2161 14.6306,-6.7444 3.183,-2.6784 10.0341,-6.0518 22.6904,-11.1728 5.4854,-2.2194 10.2968,-4.91 12,-6.7105 1.6421,-1.7359 10.8422,-6.9802 21.7775,-12.4138 10.4138,-5.1745 19.6388,-9.9909 20.5,-10.7031 0.8612,-0.7122 2.8964,-1.8647 4.5226,-2.5611 1.6263,-0.6964 3.5957,-2.1783 4.3766,-3.293 1.3678,-1.9529 14.4136,-8.8275 16.7517,-8.8275 0.6278,0 4.2405,-2.3061 8.0282,-5.1245 3.7877,-2.8185 8.4617,-5.7866 10.3867,-6.5959 1.925,-0.8092 4.4061,-2.3067 5.5136,-3.3278 1.1076,-1.021 3.5826,-2.5147 5.5,-3.3193 5.1924,-2.1788 14.9683,-8.1877 19.3268,-11.8796 6.6641,-5.6448 21.9793,-16.6467 26.6596,-19.1514 2.475,-1.3246 6.525,-4.2936 9,-6.5978 2.475,-2.3043 6.525,-5.3441 9,-6.7552 2.475,-1.411 6.3,-4.2331 8.5,-6.2713 2.2,-2.0381 7.15,-6.0927 11,-9.0101 3.85,-2.9174 8.4782,-6.5785 10.2848,-8.1357 1.923,-1.6576 4.4498,-2.8314 6.095,-2.8314 2.7994,0 5.2887,-2.0058 6.4015,-5.1581 0.7258,-2.0558 10.8689,-10.4417 16.8833,-13.9584 3.4342,-2.008 5.0881,-3.9117 7.1117,-8.1856 1.8558,-3.9196 4.0119,-6.5507 7.2797,-8.8835 2.5536,-1.8229 6.5106,-4.8894 8.7934,-6.8144 2.2829,-1.925 5.8034,-4.3397 7.8234,-5.3659 2.966,-1.5069 3.9932,-2.8454 5.3376,-6.9556 1.0471,-3.2014 3.5091,-7.1077 6.6359,-10.529 2.7341,-2.9916 6.305,-7.9615 7.9352,-11.0444 1.6303,-3.0828 5.1026,-8.6776 7.7163,-12.4328 2.6896,-3.8642 5.5366,-9.5066 6.5595,-13 0.994,-3.3948 2.8691,-9.5133 4.1669,-13.5967 1.6497,-5.1909 2.0762,-7.9538 1.4177,-9.1843 -0.5181,-0.9679 -0.9502,-4.1519 -0.9603,-7.0756 -0.053,-15.1658 -2.9365,-23.7829 -10.8655,-32.4658 -3.0889,-3.3826 -6.6486,-7.5279 -7.9105,-9.2118 -1.2619,-1.6839 -4.5244,-4.2754 -7.25,-5.7588 -2.7256,-1.4835 -4.9556,-2.9994 -4.9556,-3.3688 0,-1.3858 -8.7836,-6.9065 -15.0208,-9.4409 -3.5591,-1.4462 -8.114,-3.7166 -10.122,-5.0454 -3.2335,-2.1399 -5.4176,-2.5336 -19.1085,-3.445 -8.5017,-0.5659 -18.0927,-1.7152 -21.3133,-2.5541 -3.2206,-0.8388 -6.679,-1.5251 -7.6853,-1.5251 -1.0064,0 -3.6439,-0.9256 -5.8612,-2.0567 -3.7718,-1.9242 -4.3329,-1.9617 -8.7102,-0.5809 -5.2803,1.6656 -31.9021,2.8941 -32.7565,1.5116 -0.8052,-1.3028 -5.8405,-1.0558 -7.252,0.3557 -1.18,1.1801 -5.8646,1.8822 -22.1702,3.3228 -4.125,0.3645 -10.425,1.4798 -14,2.4785 -3.575,0.9987 -11.2024,2.0834 -16.9497,2.4105 -8.2436,0.4691 -11.6214,1.1352 -16,3.1551 -3.0527,1.4082 -9.8037,3.2465 -15.0023,4.0851 -6.5269,1.0527 -10.3952,2.2304 -12.5,3.8053 -1.6764,1.2545 -4.173,2.5981 -5.548,2.9859 -8.1583,2.3011 -22.9656,8.1675 -25.6833,10.1753 -2.7618,2.0404 -4.3231,2.3518 -11.7921,2.3518 -10.1634,0 -21.602,2.1749 -29.2672,5.5648 -3.0284,1.3393 -6.349,2.4352 -7.3789,2.4352 -1.03,0 -3.6156,1.5745 -5.7457,3.499 -2.1302,1.9244 -5.394,3.7878 -7.2529,4.1408 -6.126,1.1633 -6.7258,1.9082 -11.7236,14.558 -2.033,5.1456 -18.8816,7.9731 -22.6563,3.8022 -3.4982,-3.8655 -13.2964,-0.03 -18.5764,7.2715 -4.4724,6.1848 -9.7805,9.3449 -18.1944,10.8319 -7.4815,1.3222 -8.8668,2.2476 -11.2373,7.5066 -1.867,4.1421 -6.6114,6.1608 -10.7807,4.5871 -4.3764,-1.6519 -7.8535,0.2508 -9.1938,5.0312 -1.4516,5.1768 -3.2851,6.6595 -9.0412,7.3118 -6.8835,0.7799 -15.4762,3.6199 -15.4762,5.115 0,0.6825 -3.1576,2.704 -7.0169,4.4921 -6.1907,2.8682 -7.3683,3.8737 -10.0009,8.5383 -3.3733,5.9771 -8.9848,10.2308 -14.1024,10.6901 -4.1038,0.3682 -8.1554,2.3694 -7.37,3.6402 0.3112,0.5036 -0.3512,2.7131 -1.472,4.91 -1.1208,2.197 -2.0378,4.597 -2.0378,5.3334 0,0.7365 -1.5588,1.9027 -3.4641,2.5916 -1.9052,0.6889 -4.7177,2.5992 -6.25,4.2451 -3.6257,3.8944 -11.4185,8.3161 -18.1214,10.2821 -8.4321,2.4732 -13.182,7.201 -8.9639,8.9222 3.2437,1.3235 3.2437,1.3235 -2.7285,5.4562 -3.2846,2.273 -7.7387,5.9576 -9.8979,8.1881 -2.1591,2.2305 -4.5,4.0555 -5.2018,4.0555 -0.7019,0 -2.7603,1.5197 -4.5743,3.3772 -1.8139,1.8576 -7.035,5.302 -11.6022,7.6544 -5.6338,2.9017 -8.7725,5.1826 -9.7604,7.0931 -2.4387,4.716 -10.7758,6.9378 -18.3649,4.8943 -4.1964,-1.13 -10.0706,0.6582 -10.0706,3.0657 0,0.5683 -0.4476,0.7567 -0.9946,0.4186 -3.2011,-1.9784 -10.198,11.0069 -7.8918,14.6462 3.2982,5.2047 -5.4975,12.8561 -11.2437,9.7808 -1.5989,-0.8557 -2.6356,-0.6057 -5.1842,1.25 -1.7522,1.2758 -4.8932,3.1888 -6.9802,4.2511 -2.0869,1.0623 -5.8679,4.2123 -8.4022,7 -2.5342,2.7877 -5.8782,6.0084 -7.431,7.1571 -1.5528,1.1487 -4.6422,4.3731 -6.8654,7.1653 -2.2232,2.7923 -6.0313,6.2425 -8.4624,7.6672 -14.2686,8.362 -18.9226,17.3215 -8.4279,16.2246 6.719,-0.7023 7.0003,0.4297 1.4736,5.9293 -1.6996,1.6913 -4.9577,5.2913 -7.2403,8 -3.9868,4.7313 -12.9085,10.1676 -22.2521,13.5589 -1.8712,0.6792 -5.3861,2.9519 -7.8108,5.0505 -2.4248,2.0986 -5.0081,3.8157 -5.7408,3.8157 -1.5437,0 -2.5462,2.165 -2.5462,5.4988 0,2.0949 -2.5018,8.5222 -4.8661,12.5012 -0.4902,0.825 -1.6245,3.2105 -2.5208,5.3012 -0.968,2.258 -2.9174,4.4909 -4.8016,5.5 -1.7445,0.9343 -8.0839,6.5144 -14.0875,12.4002 -8.4352,8.2698 -11.9794,11.0548 -15.5971,12.2564 -2.5748,0.8552 -6.3328,2.6771 -8.3511,4.0485 -2.0183,1.3715 -4.0311,2.4959 -4.4727,2.4986 -3.5847,0.022 -6.3511,4.5905 -5.0481,8.336 2.0202,5.8073 0.2903,12.2111 -3.7254,13.7909 -3.9036,1.5357 -7.0316,4.3419 -10.6238,9.5309 -1.9662,2.8402 -4.2732,4.694 -7.2614,5.8353 -3.0337,1.1585 -5.336,3.0293 -7.4914,6.0873 -3.7333,5.2964 -4.3161,5.3785 -7.6021,1.0703 -3.5658,-4.675 -3.3697,-8.729 0.5682,-11.7469 1.7156,-1.3148 4.1264,-4.6681 5.3575,-7.4518 5.2391,-11.8465 20.3587,-29.1434 29.35,-33.5763 2.4074,-1.187 6.0869,-4.3603 8.2953,-7.1541 2.1828,-2.7615 7.6036,-8.8922 12.0461,-13.6237 5.2603,-5.6026 9.0607,-10.7307 10.8972,-14.7042 1.6427,-3.5542 4.3148,-7.3114 6.4009,-9 6.8268,-5.5258 25.3515,-24.3137 30.1626,-30.5909 6.0535,-7.8982 27.0061,-28.9042 34.5168,-34.6048 3.105,-2.3567 12.33,-11.2366 20.5,-19.7331 9.6914,-10.0788 15.9795,-15.825 18.0911,-16.5322 2.2046,-0.7383 4.8519,-3.2561 8.3024,-7.8963 3.6121,-4.8575 5.878,-6.9747 7.8967,-7.3785 1.557,-0.3114 4.8492,-2.2754 7.3158,-4.3645 7.6349,-6.4662 14.616,-11.7211 18.0037,-13.552 1.7847,-0.9645 6.8457,-5.2395 11.2468,-9.5 4.4011,-4.2605 9.5532,-8.6463 11.4492,-9.7463 1.8959,-1.1 4.4501,-2.5716 5.676,-3.2701 1.2258,-0.6985 3.3571,-2.611 4.7362,-4.25 1.3791,-1.639 2.8079,-2.9799 3.1751,-2.9799 0.3672,0 2.88,-1.9891 5.5839,-4.4202 2.704,-2.4311 7.0319,-5.4443 9.6176,-6.696 2.5857,-1.2517 7.0939,-4.6306 10.0183,-7.5087 2.9812,-2.9339 6.6445,-5.5244 8.3386,-5.8964 2.5676,-0.564 13.1949,-8.276 16.4031,-11.9034 1.7241,-1.9495 13.4783,-10.5753 14.4107,-10.5753 0.4886,0 3.296,-1.6219 6.2388,-3.6042 2.9428,-1.9823 7.0466,-4.4708 9.1196,-5.53 2.0729,-1.0593 4.9373,-3.2372 6.3653,-4.8398 5.1097,-5.7348 16.98,-11.9912 22.8515,-12.0442 1.1077,-0.01 3.9943,-1.3601 6.4146,-3 2.4202,-1.64 5.2112,-2.9818 6.2021,-2.9818 1.7463,0 14.3687,-8.0943 16.4058,-10.5205 0.5546,-0.6605 3.4796,-2.439 6.5,-3.9521 3.0204,-1.5132 7.026,-3.9036 8.9014,-5.3121 4.5148,-3.3908 9.5751,-5.1178 15.1531,-5.1715 5.0183,-0.048 7.5029,-2.006 11.9207,-9.3929 2.664,-4.4544 17.9338,-12.2901 26.0022,-13.3429 5.6987,-0.7436 8.6639,-2.2408 13.9943,-7.0659 4.763,-4.3114 8.7675,-6.4971 27.6552,-15.0943 9.0192,-4.1053 15.5401,-6.3829 20.8095,-7.2684 6.2557,-1.0511 8.4114,-1.9205 11.6625,-4.7033 4.5647,-3.9072 15.3428,-8.3242 28.3927,-11.6357 4.95,-1.2561 13.725,-4.3955 19.5,-6.9765 21.3532,-9.5432 27.699,-11.5886 39.4765,-12.7245 6.0629,-0.5848 12.541,-1.6879 14.3956,-2.4513 1.8547,-0.7635 5.8805,-1.3881 8.9463,-1.3881 4.4138,0 6.3773,-0.5567 9.4329,-2.6742 2.8707,-1.9894 5.317,-2.7458 9.5537,-2.9543 3.1323,-0.1541 13.57,-0.7776 23.195,-1.3857 31.8487,-2.0118 46.964,-2.1534 52.5,-0.4916 2.75,0.8255 9.6536,2.3763 15.3414,3.4463 5.7522,1.0821 12.5114,3.0801 15.2316,4.5024 2.701,1.4124 6.5772,2.5619 8.6586,2.5679 5.1554,0.015 12.0859,2.247 16.7015,5.3792 2.1407,1.4527 5.2486,2.61 7.0093,2.61 3.6091,0 18.3069,6.7828 20.5429,9.4802 0.8169,0.9855 3.1334,2.8322 5.1478,4.1038 2.0143,1.2716 4.946,4.1917 6.5147,6.4891 1.5687,2.2974 5.1666,6.7645 7.9953,9.927 13.0763,14.6191 18.8193,38.283 14.4704,59.6244 -1.1624,5.7044 -2.1135,11.4575 -2.1135,12.7847 0,1.4648 -1.2044,3.4264 -3.0651,4.9921 -1.6858,1.4185 -2.7806,3.0394 -2.4328,3.602 1.219,1.9724 -2.5674,12.0632 -5.9243,15.788 -1.8382,2.0398 -4.7005,6.6337 -6.3606,10.2087 -2.0762,4.471 -5.8587,9.5755 -12.1178,16.3531 -7.5451,8.17 -9.0994,10.4036 -9.0994,13.0757 0,2.1834 -0.8391,4.0042 -2.6023,5.6468 -1.4313,1.3334 -4.8682,5.4619 -7.6375,9.1744 -3.7874,5.0772 -5.6332,6.75 -7.4481,6.75 -2.1764,0 -24.0143,20.9273 -25.1565,24.1075 -0.1895,0.5275 -3.1003,2.3501 -6.4685,4.0504 -7.9282,4.0021 -14.8595,9.8983 -19.1163,16.2614 -5.366,8.0211 -16.7283,17.5807 -20.8959,17.5807 -0.7507,0 -2.2222,0.9547 -3.2699,2.1215 -2.263,2.5203 -12.8816,9.8785 -14.2556,9.8785 -2.5802,0 -10.2969,5.2117 -17.1134,11.5582 -4.1696,3.8821 -10.4411,9.0571 -13.9366,11.5 -8.1543,5.6988 -7.7383,5.4474 -13.5994,8.2193 -12.9391,6.1193 -21.7879,11.0364 -25.1089,13.9522 -1.9982,1.7544 -7.9661,5.2813 -13.2621,7.8374 -5.6286,2.7168 -11.3087,6.3163 -13.672,8.6643 -2.2237,2.2092 -6.0487,5.0248 -8.5,6.2569 -2.4514,1.232 -5.9065,3.3267 -7.6781,4.6547 -1.7716,1.3281 -6.1591,3.7329 -9.75,5.344 -3.5909,1.6111 -6.5289,3.3447 -6.5289,3.8525 0,2.9364 -10.2156,10.1061 -16.5,11.5804 -3.3052,0.7754 -15.7265,7.9431 -17.5292,10.1152 -0.6261,0.7544 -3.5956,2.086 -6.599,2.9591 -3.0034,0.8731 -7.8032,3.0782 -10.6663,4.9001 -2.863,1.822 -6.7805,3.8305 -8.7055,4.4634 -1.925,0.6329 -4.85,2.068 -6.5,3.1892 -1.65,1.1212 -4.4313,2.6583 -6.1807,3.4158 -1.7494,0.7575 -6.2494,3.3548 -10,5.7718 -3.7506,2.4169 -9.0693,5.2027 -11.8193,6.1905 -2.8792,1.0342 -6.5463,3.4162 -8.6454,5.6157 -3.6176,3.7905 -11.1696,6.9593 -16.5858,6.9593 -3.1642,0 -7.9438,2.5331 -12.5217,6.6362 -2.0641,1.8501 -4.2461,3.3638 -4.8489,3.3638 -3.7092,0 -22.6886,10.1207 -26.3009,14.0248 -2.223,2.4027 -4.9319,4.0772 -7.7566,4.7948 -2.3874,0.6065 -6.8157,2.6847 -9.8407,4.6183 -3.025,1.9335 -7.975,4.6859 -11,6.1163 -3.025,1.4304 -7.7565,3.6908 -10.5144,5.0232 -2.7578,1.3324 -5.5251,2.4226 -6.1495,2.4226 -0.6243,0 -3.5259,1.6089 -6.4481,3.5753 -6.8032,4.5782 -11.2703,6.4247 -15.5434,6.4247 -3.7141,0 -10.1553,3.0874 -17.5871,8.4299 -3.8675,2.7802 -5.9895,3.5269 -11.5,4.0468 -8.0263,0.7573 -13.471,2.5742 -19.3975,6.4728 -2.398,1.5775 -6.1839,3.3527 -8.4131,3.9448 -2.2292,0.5922 -5.8292,2.5729 -8,4.4015 -2.1708,1.8286 -5.7469,4.241 -7.9469,5.3609 -2.2,1.1198 -5.8,2.973 -8,4.1181 -5.0324,2.6196 -10.6012,4.6394 -16.9517,6.1486 -2.7234,0.6472 -7.5292,2.7425 -10.6796,4.6563 -3.1503,1.9137 -8.1241,4.304 -11.0528,5.3116 -5.3284,1.8332 -13.7993,6.0638 -21.3159,10.6456 -2.2,1.3411 -8.3952,3.8501 -13.7672,5.5756 -5.372,1.7256 -11.672,4.3826 -14,5.9046 -2.328,1.522 -5.8078,3.0932 -7.7328,3.4916 -1.925,0.3984 -5.975,2.2413 -9,4.0954 -3.025,1.8541 -9.3685,4.4925 -14.0966,5.8632 -4.7281,1.3706 -9.9031,3.1738 -11.5,4.0069 -1.5969,0.8332 -4.4784,1.7819 -6.4034,2.1081 -1.925,0.3262 -5.75,1.4461 -8.5,2.4885 -2.75,1.0425 -6.8243,2.3466 -9.0539,2.8981 -2.2297,0.5514 -6.2783,2.584 -8.9968,4.5168 -2.7186,1.9328 -5.4223,3.5143 -6.0083,3.5143 -1.0549,0 -8.1985,3.0975 -11.818,5.1244 -2.1706,1.2156 -9.5389,3.2058 -19.7524,5.3354 -4.6827,0.9764 -8.9183,2.6742 -12.2622,4.9151 -3.7649,2.5232 -6.5549,3.5563 -10.6084,3.9283 -3.8524,0.3535 -7.7505,1.7194 -13.0126,4.5596 -4.132,2.2301 -10.657,5.3838 -14.5,7.0082 -3.8431,1.6243 -10.7825,4.5625 -15.421,6.5292 -4.6385,1.9668 -8.7722,4.1238 -9.186,4.7933 -0.4138,0.6695 -3.8187,1.5124 -7.5664,1.873 -10.1319,0.9749 -14.6061,2.5285 -19.9141,6.9147 -3.386,2.798 -6.1171,4.1464 -9.3423,4.6125 -2.5067,0.3622 -5.0237,1.0269 -5.5933,1.477 -0.5697,0.4502 -5.2191,1.7315 -10.3321,2.8474 -5.2204,1.1394 -11.5622,3.3149 -14.4643,4.962 -2.8423,1.6131 -7.495,3.6152 -10.3392,4.4491 -2.8443,0.8339 -8.1632,2.901 -11.8198,4.5935 -3.6566,1.6925 -7.1862,3.0773 -7.8435,3.0773 -0.6573,0 -2.8022,0.8613 -4.7664,1.9141 -1.9643,1.0528 -5.7827,2.233 -8.4852,2.6226 -2.7026,0.3896 -8.0638,1.7218 -11.9138,2.9605 -3.85,1.2386 -9.8671,2.584 -13.3714,2.9897 -5.293,0.6128 -7.0114,1.3158 -10.1528,4.1539 -3.2873,2.9699 -4.6761,3.4967 -10.6286,4.0318 -5.0193,0.4513 -8.8494,1.6038 -14.3472,4.3171 -4.125,2.0358 -9.75,4.4203 -12.5,5.2989 -13.548,4.3283 -18.4623,5.773 -22.5484,6.6284 -2.4484,0.5126 -6.4766,1.6284 -8.9516,2.4796 -2.475,0.8511 -6.6957,2.0848 -9.3794,2.7416 -2.6836,0.6568 -6.9586,2.6181 -9.5,4.3585 -2.9076,1.9913 -7.0304,3.6334 -11.1206,4.4294 -3.575,0.6957 -8.0175,1.8969 -9.8721,2.6694 -1.8547,0.7724 -5.8201,1.4045 -8.8121,1.4045 -6.2532,0 -13.2413,1.917 -21.8158,5.9847 -3.3,1.5655 -8.475,3.3844 -11.5,4.0421 -3.025,0.6576 -7.525,1.8599 -10,2.6718 -2.475,0.8118 -7.0492,2.0615 -10.1649,2.7771 -3.1157,0.7155 -6.1528,1.6026 -6.7491,1.9711 -0.5964,0.3686 -3.3451,0.8385 -6.1083,1.0442 -2.7632,0.2057 -8.5499,1.5154 -12.8593,2.9105 -4.3094,1.395 -11.1615,3.0512 -15.2269,3.6805 -4.0653,0.6293 -8.9665,1.9755 -10.8915,2.9916 -7.5794,4.0009 -10.2211,4.992 -14.7703,5.5415 -2.6014,0.3143 -7.2564,1.4078 -10.3447,2.43 -3.0882,1.0223 -9.1632,2.3409 -13.5,2.9303 -4.3367,0.5894 -11.485,1.7249 -15.885,2.5233 -4.4,0.7984 -11.982,1.9137 -16.8488,2.4785 -4.8669,0.5648 -9.2427,1.2703 -9.724,1.5677 -1.4247,0.8806 -24.0951,4.4491 -28.2841,4.4522 -2.1213,0 -6.8463,0.674 -10.5,1.4942 -3.6537,0.8203 -11.1431,2.3834 -16.6431,3.4737 -5.5,1.0903 -14.275,2.9036 -19.5,4.0295 -6.8774,1.4821 -13.2269,2.0534 -23,2.0695 -9.1887,0.015 -17.3323,0.6963 -25.5,2.1328 -11.6884,2.0557 -29.8903,2.4913 -63.5,1.5199 -4.125,-0.1192 -14.7,0.164 -23.5,0.6294 -8.8,0.4654 -16.3197,0.5207 -16.7104,0.123 z m -112.7967,-101.4029 c 4.4204,-3.8136 10.4886,-8.1332 13.4849,-9.5992 2.9963,-1.4659 6.477,-3.663 7.735,-4.8824 1.2579,-1.2194 3.8102,-2.8295 5.6717,-3.5779 2.5022,-1.006 3.9117,-2.5531 5.4063,-5.9338 4.0408,-9.1397 10.1063,-14.253 21.5967,-18.2063 7.0181,-2.4145 11.0795,-5.5818 15.0078,-11.7035 2.6992,-4.2064 4.4173,-5.5529 11.4488,-8.973 4.5502,-2.2132 8.9217,-4.8056 9.7145,-5.7609 0.7928,-0.9554 4.1414,-2.9522 7.4414,-4.4373 3.9546,-1.7797 9.2386,-5.6696 15.5,-11.4104 9.5316,-8.7391 19.9428,-15.5815 23.7082,-15.5815 2.456,0 9.3484,-5.3054 18.1881,-14 3.6347,-3.575 9.9824,-8.7286 14.1061,-11.4524 8.9575,-5.9168 13.8802,-9.763 18.9062,-14.7721 7.2398,-7.2155 14.629,-11.3883 22.8614,-12.9101 7.4192,-1.3715 8.7572,-2.1563 11.7442,-6.8879 2.6525,-4.2019 7.5912,-7.2257 15.7667,-9.6536 3.0827,-0.9155 6.7206,-3.0911 9.5926,-5.7366 2.5446,-2.3441 5.414,-4.546 6.3765,-4.8932 1.1993,-0.4327 1.75,-1.7003 1.75,-4.0279 0,-4.8722 3.235,-8.5203 8.2693,-9.3253 2.8568,-0.4568 5.063,-1.673 7.1776,-3.9567 1.6792,-1.8134 4.8531,-4.1047 7.0531,-5.0919 2.2,-0.9871 6.1061,-3.2567 8.6802,-5.0436 2.5741,-1.7868 5.1248,-3.2487 5.6683,-3.2487 0.5435,0 3.3324,-2.0011 6.1976,-4.4467 2.8652,-2.4457 6.7386,-5.1724 8.6075,-6.0592 1.869,-0.8869 4.93,-3.1444 6.8023,-5.0167 1.8723,-1.8723 4.6732,-3.7048 6.2242,-4.0721 1.5509,-0.3673 3.7199,-1.4384 4.8199,-2.3802 1.1,-0.9418 5.8444,-4.2373 10.5431,-7.3233 6.0276,-3.9588 9.0341,-6.6404 10.2104,-9.1072 1.3062,-2.7391 2.5659,-3.7382 5.8171,-4.6137 2.8193,-0.7591 5.798,-2.7923 9.2897,-6.341 2.8268,-2.873 6.9397,-6.0568 9.1397,-7.0752 2.2,-1.0183 5.5906,-3.0981 7.5347,-4.6217 1.9441,-1.5235 5.3191,-3.5759 7.5,-4.5609 2.1809,-0.9849 5.3153,-3.0227 6.9653,-4.5284 4.7679,-4.351 16.664,-11.8195 20.4948,-12.8669 1.9278,-0.5271 6.4963,-3.5523 10.1521,-6.7226 3.6558,-3.1703 8.9433,-6.6508 11.75,-7.7344 2.8067,-1.0836 5.1031,-2.2842 5.1031,-2.6681 0,-0.3839 2.2931,-2.9791 5.0959,-5.7671 4.6867,-4.6622 7.5751,-6.1265 14.3413,-7.2703 1.0655,-0.1802 5.8836,-4.8775 10.7069,-10.4385 7.0826,-8.1658 9.8843,-10.6338 14.5628,-12.8291 3.1862,-1.4949 7.3681,-4.1694 9.2931,-5.9431 6.9624,-6.4154 12.8587,-10.589 19.3199,-13.6754 3.6224,-1.7303 7.3211,-4.2676 8.2192,-5.6383 3.0869,-4.7112 14.9666,-15.4131 19.9609,-17.9819 2.75,-1.4144 5.3616,-3.1927 5.8035,-3.9517 0.7607,-1.3065 11.8101,-8.9042 14.0214,-9.6413 8.0664,-2.6888 -11.8031,-5.5365 -29.6949,-4.2558 -5.5715,0.3988 -17.33,0.8319 -26.13,0.9624 -17.4089,0.2582 -21.9978,0.8152 -30.3281,3.6812 -3.0168,1.038 -7.608,1.8872 -10.2027,1.8872 -2.5948,0 -6.5612,0.6504 -8.8142,1.4453 -2.6559,0.937 -12.1074,1.8172 -26.8758,2.5027 -22.9091,1.0634 -35.329,2.6868 -47.1976,6.1689 -3.5301,1.0357 -6.9604,1.8831 -7.6229,1.8831 -0.6625,0 -3.1742,0.8474 -5.5816,1.8831 -2.4074,1.0357 -6.8521,2.1848 -9.8771,2.5535 -3.025,0.3687 -8.425,1.9732 -12,3.5656 -6.065,2.7014 -12.5898,5.253 -26,10.1678 -3.025,1.1087 -7.8342,3.0989 -10.6871,4.4229 -2.8528,1.3239 -5.6079,2.4071 -6.1223,2.4071 -0.5144,0 -4.4507,1.1475 -8.7473,2.55 -4.2966,1.4026 -9.9676,3.0124 -12.6022,3.5774 -2.6345,0.5651 -6.2641,2.0084 -8.0656,3.2075 -4.8938,3.2572 -23.7427,11.4305 -27.9626,12.1251 -3.7836,0.6229 -22.0737,9.6709 -29.4361,14.562 -2.2678,1.5065 -5.6763,3.2517 -7.5745,3.8782 -1.8981,0.6264 -6.1177,3.2842 -9.3767,5.9062 -9.2663,7.4548 -14.4505,10.7601 -21.4483,13.6746 -3.5625,1.4838 -13.6136,7.452 -22.3358,13.2627 -8.7222,5.8107 -17.7222,11.1983 -20,11.9723 -3.8271,1.3005 -15.7163,9.5563 -16.4704,11.437 -1.1903,2.9687 -4.2649,4.956 -9.0392,5.8429 -5.9946,1.1134 -15.0595,6.981 -21.3694,13.832 -2.1389,2.3223 -6.6301,5.4199 -10.5,7.2421 -8.474,3.9899 -11.0122,6.2868 -12.3219,11.1506 -0.8917,3.3116 -1.7873,4.2061 -6.3948,6.3877 -4.807,2.276 -15.1188,11.6886 -19.6007,17.8917 -1.2922,1.7884 -6.2253,6.2858 -11.5383,10.5193 -1.0487,0.8357 -3.5342,2.5227 -5.5233,3.749 -1.989,1.2264 -4.8007,4.0192 -6.2481,6.2064 -1.4474,2.1872 -3.806,4.7461 -5.2413,5.6866 -1.6423,1.0761 -4.6347,5.8577 -8.0727,12.8997 -4.604,9.4302 -6.6298,12.3494 -12.8826,18.5643 -4.1592,4.1341 -8.1086,9.0958 -8.9878,11.2915 -0.8626,2.1543 -2.432,5.0149 -3.4876,6.3569 -1.4143,1.798 -1.6658,2.9139 -0.9556,4.2408 0.9384,1.7534 -1.5192,8.9452 -5.4979,16.0891 -3.8172,6.8538 -8.8101,27.2854 -10.0485,41.1193 -0.3931,4.3914 -1.2611,8.1958 -2.0121,8.8191 -2.9577,2.4547 -2.7711,6.7639 0.4703,10.8564 2.5974,3.2795 3.0804,4.7535 3.0804,9.4 0,4.1642 0.9939,7.9162 4.0679,15.3561 2.2373,5.415 4.9041,12.4594 5.9261,15.6542 5.466,17.0867 13.8543,20.2348 25.9989,9.7575 z m 727.0071,-376.0847 c 0,-1.1101 1.1482,-4.2143 2.5516,-6.8982 2.9613,-5.6634 4.0847,-40.4068 1.4107,-43.6288 -1.7947,-2.1625 -0.6818,-14.002 1.5478,-16.4657 1.4889,-1.6453 1.6329,-3.1116 1.0238,-10.4244 -0.6399,-7.6811 -0.5056,-8.7955 1.3786,-11.4416 2.5124,-3.5282 2.6027,-6.4409 0.4641,-14.9684 -1.8469,-7.3642 -0.8323,-14.9201 2.8066,-20.9005 1.6943,-2.7846 1.8871,-4.3486 1.3563,-11 -1.1605,-14.5427 -1.0415,-18.6544 0.6441,-22.2539 1.7614,-3.7617 3.4272,-20.5381 2.1115,-21.2663 -2.1731,-1.2029 -6.9951,1.4139 -8.5276,4.6276 -0.8932,1.8731 -2.9068,4.9206 -4.4745,6.7722 -1.5678,1.8515 -4.151,5.3002 -5.7405,7.6637 -1.5895,2.3634 -4.7265,5.5289 -6.9712,7.0344 -2.2447,1.5054 -4.7986,4.2497 -5.6752,6.0983 -1.638,3.4541 -6.9694,7.9227 -12.5892,10.5518 -3.7068,1.7342 -6.3971,5.1456 -5.6315,7.1408 1.8216,4.747 -14.7704,22.1689 -28.6854,30.1202 -6.5198,3.7256 -13.6918,10.913 -17.4684,17.506 -1.4961,2.6119 -5.3371,6.8869 -8.5354,9.5 -11.4551,9.3593 -10.7652,13.6615 2.8643,17.8615 4.7517,1.4643 10.2758,3.501 12.2757,4.5261 2.0908,1.0716 5.7232,1.8637 8.547,1.8637 4.4117,0 5.3079,0.4065 8.8168,4 2.1482,2.2 4.5489,4 5.3349,4 0.7859,0 2.8433,1.4625 4.5719,3.25 1.7286,1.7875 4.7077,4.0482 6.6201,5.0239 2.0781,1.0602 5.1657,4.2788 7.674,8 2.3083,3.4243 6.1324,7.7842 8.498,9.6887 2.3656,1.9044 6.1635,5.44 8.4399,7.857 7.4368,7.8962 15.3612,11.075 15.3612,6.1619 z m 329.1625,-89.0858 c 2.6606,-1.7073 4.8375,-3.5073 4.8375,-4 0,-2.8018 -10.3262,1.3299 -11.8874,4.7565 -1.5433,3.3873 1.0212,3.1121 7.0499,-0.7565 z M 415.93682,934.64336 c -11.5919,-4.8892 -16.14458,-17.9898 -9,-25.898 3.70312,-4.0989 4.27044,-6.9585 2.56216,-12.9149 -0.692,-2.4129 -0.53886,-4.2249 0.5842,-6.9128 0.83712,-2.0035 1.30439,-4.7812 1.03839,-6.1727 -0.266,-1.3915 -0.0131,-3.6778 0.56208,-5.0806 0.57514,-1.4029 1.19932,-8.1756 1.38705,-15.0506 0.52603,-19.2633 0.37365,-22.3342 -1.19417,-24.0667 -2.05043,-2.2657 -1.81441,-3.5647 1.40663,-7.742 5.03755,-6.5331 6.65043,-17.3648 3.65366,-24.5371 -2.49627,-5.9744 -2.00737,-18.7063 0.93782,-24.4227 2.49027,-4.8333 5.22204,-19.6002 4.28722,-23.175 -0.27839,-1.0646 0.0792,-4.7753 0.79475,-8.2461 9.39812,-45.588 4.5151,-62.9222 -13.18097,-46.791 -4.21173,3.8393 -8.05525,6.9806 -8.54116,6.9806 -0.48591,0 -3.22667,1.766 -6.09057,3.9245 -5.26905,3.9713 -19.04217,11.0755 -21.47242,11.0755 -0.72696,0 -3.66852,2.3625 -6.5368,5.25 -2.86828,2.8875 -7.91118,7.0256 -11.20646,9.1959 -3.29528,2.1702 -9.49899,6.6702 -13.78604,10 -14.06933,10.9276 -15.14166,11.6942 -21.70537,15.5161 -3.575,2.0817 -7.58168,4.1191 -8.90373,4.5276 -1.32205,0.4085 -5.9428,3.8009 -10.26834,7.5388 -4.77487,4.1261 -9.69706,7.4204 -12.52891,8.3853 -4.82772,1.645 -17.29902,9.2581 -17.29902,10.5602 0,0.4065 -2.75139,2.7161 -6.11421,5.1325 -3.36282,2.4165 -9.89239,7.4149 -14.51016,11.1077 -5.03704,4.0281 -10.06129,7.1627 -12.55865,7.8351 -2.8338,0.7631 -5.93253,2.8767 -9.70653,6.6207 -3.0491,3.0248 -7.58381,6.6627 -10.07714,8.0841 -2.49332,1.4214 -5.20831,3.1457 -6.03331,3.8318 -0.825,0.6861 -3.75,2.1053 -6.5,3.1537 -2.75,1.0483 -9.05,4.9076 -14,8.5762 -14.549,10.7825 -16.81539,12.3525 -20.5,14.2013 -1.925,0.9658 -6.29936,3.9729 -9.72079,6.6824 -3.42144,2.7094 -9.03873,6.0306 -12.48286,7.3804 -3.94786,1.5471 -7.93141,4.098 -10.77921,6.9024 -2.48443,2.4466 -7.41876,5.8537 -10.96518,7.5713 -3.54643,1.7176 -8.27143,4.3716 -10.5,5.8978 -2.22858,1.5262 -5.85196,3.7498 -8.05196,4.9412 -12.087017,6.5459 -26.499997,18.9193 -26.499997,22.7501 0,3.2047 -3.7568,5.3736 -10.516268,6.0712 -6.97467,0.7198 -19.48373,-10.3023 -19.48373,-17.1677 0,-7.1828 5.98672,-15.7889 11.85132,-17.0366 5.87945,-1.2508 13.892498,-5.4737 18.857968,-9.9381 2.64977,-2.3824 6.97136,-5.0627 9.60353,-5.9564 5.30133,-1.7998 13.321037,-7.419 18.687177,-13.0935 3.37906,-3.5732 13.5116,-10.6663 20.11476,-14.0809 1.75981,-0.91 5.29243,-3.6121 7.85027,-6.0047 2.5933,-2.4257 9.11503,-6.5573 14.74255,-9.3396 12.84865,-6.3524 27.37449,-15.6712 33.79242,-21.679 5.62462,-5.2651 18.94807,-14.0082 23.80063,-15.6182 1.75965,-0.5839 4.99937,-2.7398 7.19937,-4.791 5.72651,-5.3391 14.58082,-11.6595 17.5,-12.492 2.72037,-0.7757 15.55455,-8.9864 16.54056,-10.5818 0.33454,-0.5413 3.83727,-2.6074 7.78384,-4.5914 3.94658,-1.984 8.21977,-4.425 9.49598,-5.4244 1.27621,-0.9994 4.32564,-2.1178 6.7765,-2.4853 6.0834,-0.9123 10.55112,-4.1564 12.3848,-8.9929 2.59056,-6.8329 5.65927,-10.0276 13.75044,-14.3149 13.43015,-7.1164 18.63252,-10.2384 22.02727,-13.219 1.81071,-1.5899 5.34282,-3.407 7.84913,-4.0381 3.67087,-0.9243 4.86852,-1.8008 6.15942,-4.5079 0.88136,-1.8482 2.00809,-3.3604 2.50383,-3.3604 0.49573,0 3.67489,-2.6409 7.06478,-5.8687 3.3899,-3.2278 7.80325,-6.3969 9.80745,-7.0426 2.0042,-0.6456 4.9292,-2.305 6.5,-3.6874 5.31566,-4.6783 17.83687,-13.0915 21.15613,-14.2151 1.81507,-0.6144 4.51507,-2.0518 6,-3.1941 7.3951,-5.6888 15.86969,-11.3741 18.74594,-12.5758 1.76687,-0.7383 4.50431,-2.4207 6.08321,-3.7386 1.5789,-1.318 4.25349,-3.105 5.94355,-3.9711 5.12675,-2.6274 5.54273,-3.7773 6.11357,-16.9001 0.96141,-22.1014 0.49436,-34.9493 -1.34435,-36.9811 -1.9539,-2.159 -1.42936,-12.6759 1.10346,-22.1242 1.94773,-7.2658 1.99111,-20.9057 0.0833,-26.2012 -0.80004,-2.2207 -1.46058,-7.7109 -1.48495,-12.3423 -0.0357,-6.7844 -0.41737,-8.8171 -2.04389,-10.8849 -2.50664,-3.1867 -2.49855,-4.2548 0.0695,-9.1818 2.12818,-4.083 2.12663,-9.2949 -0.003,-11.4249 -0.6924,-0.6921 -1.06647,-9.0101 -1.06647,-23.7072 0,-17.188 -0.35867,-23.8234 -1.48918,-27.55 -0.81904,-2.6999 -1.49404,-6.59 -1.5,-8.6446 -0.0107,-3.6861 -0.33155,-5.4799 -3.44603,-19.2643 -0.86987,-3.85 -1.57781,-8.5817 -1.57319,-10.5149 0.005,-1.9331 -0.9251,-5.2565 -2.06605,-7.3852 -1.41648,-2.6429 -1.85752,-4.6999 -1.39051,-6.4852 0.61919,-2.3672 0.87226,-8.3808 1.54083,-36.6147 0.11722,-4.95 -0.16784,-13.95 -0.63346,-20 -1.7269,-22.4385 0.92582,-26.809 15.19053,-25.0267 10.16493,1.27 15.48451,10.0358 13.83685,22.8007 -1.32724,10.2825 -0.62083,22.5961 1.58197,27.5759 1.07153,2.4223 1.97713,6.7096 2.01244,9.5272 0.0748,5.969 1.94331,15.156 3.7313,18.3459 0.68533,1.2227 1.73629,4.5977 2.33545,7.5 1.09463,5.3023 1.33339,7.2897 4.29827,35.777 0.88726,8.525 2.24613,19.1 3.01972,23.5 0.86236,4.9049 1.19637,11.1046 0.86332,16.025 -0.39028,5.7659 -0.072,9.8477 1.13048,14.5 1.63281,6.3169 2.82616,14.2283 4.59684,30.475 0.47954,4.4 1.1773,10.1549 1.55058,12.7887 0.5032,3.5505 0.23032,5.7829 -1.05536,8.6341 -2.49626,5.5357 -0.99045,60.5555 1.77422,64.8272 1.5267,2.3588 4.89737,1.2423 12.56806,-4.1634 4.22488,-2.9774 11.26839,-7.1154 15.65226,-9.1956 4.38386,-2.0802 9.99566,-5.6589 12.47066,-7.9527 2.475,-2.2938 6.525,-5.0577 9,-6.142 2.475,-1.0842 5.12215,-2.7249 5.88255,-3.646 0.76041,-0.9211 4.13541,-2.9963 7.5,-4.6116 3.3646,-1.6153 9.04245,-5.348 12.61745,-8.2949 3.575,-2.9469 10.325,-7.5695 15,-10.2725 4.675,-2.7031 10.525,-6.7511 13,-8.9958 9.71021,-8.8064 23.14838,-17.1828 34.39948,-21.4421 4.25994,-1.6126 8.87053,-5.4288 19.06897,-15.7834 5.01077,-5.0875 9.79213,-9.25 10.62524,-9.25 0.83311,0 3.51535,-1.2484 5.96053,-2.7742 4.12285,-2.5727 10.6694,-5.6317 13.75815,-6.4288 2.76252,-0.7128 19.74593,-13.6183 27.06649,-20.5674 4.21244,-3.9987 9.20067,-8.2079 11.08498,-9.3538 1.8843,-1.146 5.8431,-4.0525 8.79733,-6.459 2.95423,-2.4065 7.0317,-4.8225 9.06103,-5.369 2.37383,-0.6392 5.60555,-2.9647 9.06176,-6.5207 2.95463,-3.0399 5.7488,-5.5271 6.20925,-5.5271 0.46046,0 2.31536,-1.2927 4.12199,-2.8725 1.80664,-1.5799 4.81142,-3.2048 6.6773,-3.6108 1.86587,-0.406 5.24087,-2.392 7.5,-4.4132 6.86402,-6.1412 10.98289,-8.8336 17.6721,-11.5517 3.51752,-1.4293 7.97947,-3.6482 9.91544,-4.9309 1.93598,-1.2828 5.76338,-3.6033 8.50533,-5.1567 2.74196,-1.5534 7.01696,-4.6871 9.5,-6.9636 7.72158,-7.0794 18.79157,-15.2374 26.3078,-19.3874 3.96376,-2.1885 8.55683,-5.3995 10.20683,-7.1354 1.65,-1.736 4.26233,-3.8156 5.80518,-4.6213 1.54284,-0.8057 6.36926,-4.6056 10.72538,-8.4442 14.15553,-12.4736 20.3548,-17.0218 24.83544,-18.2209 3.37376,-0.9028 5.02791,-2.1304 7.27846,-5.4014 2.45728,-3.5716 10.46041,-10.29 12.25757,-10.29 1.0448,0 17.15554,-12.8363 22.76865,-18.141 3.11887,-2.9475 8.43357,-7.384 11.8104,-9.859 3.3769,-2.475 10.2399,-7.9877 15.2511,-12.2505 8.8232,-7.5054 13.1525,-9.7319 18.9464,-9.744 3.7867,-0.01 5.8214,-2.4767 5.8214,-7.0636 0,-3.4693 0.3701,-4.0711 3.25,-5.2853 2.8223,-1.1898 5.7313,-3.9901 14.93532,-14.377 1.0821,-1.2211 4.5206,-3.657 7.6411,-5.4129 6.1864,-3.4813 11.27368,-7.7449 25.22308,-21.139 5.0247,-4.8247 10.4635,-9.4588 12.0861,-10.2979 1.6227,-0.8391 5.085,-3.6416 7.694,-6.2277 8.9814,-8.9028 21.7092,-19.9123 24.9685,-21.5978 1.7963,-0.9288 4.8365,-3.8749 6.7561,-6.5469 2.1898,-3.048 5.096,-5.6129 7.8004,-6.8841 9.3446,-4.3925 24.6454,-25.2252 24.6454,-33.5559 0,-0.7855 1.6065,-3.3511 3.57,-5.7012 2.3385,-2.799 3.3733,-4.9014 3,-6.0946 -0.3135,-1.0019 -0.8388,-2.6884 -1.1673,-3.7477 -0.4537,-1.4631 0.3274,-2.5196 3.25,-4.3958 2.116,-1.3584 8.1223,-6.3414 13.3473,-11.0733 5.225,-4.732 9.8614,-8.6039 10.3031,-8.6042 0.4416,-4e-4 2.4586,-1.1256 4.4821,-2.5006 2.0235,-1.375 4.725,-2.5 6.0033,-2.5 2.4534,0 8.2115,-5.454895 8.2115,-7.779095 0,-3.866305 20.1501,-6.587605 24.6801,-3.333105 5.9598,4.281705 8.6254,14.8079 4.3317,17.1058 -2.4816,1.3282 -3.635,5.5505 -2.0408,7.4714 2.8356,3.4167 -3.2815,8.5171 -10.2549,8.5503 -4.1187,0.02 -4.7463,0.5053 -8.0563,6.2347 -1.5092,2.6125 -3.1406,4.75 -3.6252,4.75 -2.0774,0 -7.0346,5.3206 -7.0346,7.5503 0,1.9055 -0.7562,2.5762 -3.8412,3.4069 -4.6734,1.2584 -6.9188,3.5897 -8.3098,8.6276 -0.9575,3.4676 -2.8771,5.7121 -10.6363,12.4369 -1.258,1.0903 -4.633,3.1655 -7.5,4.6115 -6.1909,3.1224 -6.6774,3.7453 -6.6974,8.5742 -0.014,3.3834 -0.6244,4.1934 -6.9852,9.2686 -3.8335,3.0586 -8.446,7.0388 -10.25,8.8449 -1.8041,1.8061 -6.4301,5.4745 -10.2801,8.152 -10.4612,7.2753 -22.5699,17.7458 -29.0248,25.0981 -3.1558,3.5945 -8.0413,8.0231 -10.8566,9.8411 -2.8152,1.8181 -8.4808,6.7441 -12.5902,10.9467 -4.1093,4.2026 -8.0508,7.6412 -8.7587,7.6412 -0.7079,0 -3.9793,2.475 -7.2697,5.5 -3.2904,3.025 -6.4461,5.5 -7.0125,5.5 -0.5664,0 -5.9871,4.8375 -12.04588,10.75 -6.0589,5.9125 -12.9118,11.7843 -15.2288,13.0486 -2.3171,1.2642 -7.0674,4.8513 -10.55632,7.9713 -7.8557,7.0251 -8.4095,7.4118 -16.822,11.7478 -4.9579,2.5554 -10.2666,6.8293 -19.3345,15.5655 -7.6325,7.3534 -14.97929,13.4403 -18.86701,15.6314 -3.50187,1.9736 -9.35187,6.572 -13,10.2187 -3.64813,3.6467 -8.65797,8.0929 -11.13297,9.8804 -2.475,1.7875 -6.3571,4.6981 -8.6269,6.4681 -2.26979,1.77 -7.62221,5.6932 -11.89427,8.7182 -4.27205,3.025 -11.18995,8.6653 -15.3731,12.534 -9.04453,8.3647 -12.12051,10.5428 -18.10573,12.8211 -3.10678,1.1825 -5.51603,3.0955 -7.78169,6.1789 -1.80493,2.4563 -4.06726,4.466 -5.02739,4.466 -0.96013,0 -5.29299,3.9375 -9.62858,8.75 -12.13192,13.4664 -13.43209,14.1928 -19.66002,10.9837 -3.02456,-1.5584 -5.73647,-2.3324 -6.73328,-1.9216 -3.90273,1.6084 -12.36627,8.6697 -13.85284,11.5578 -3.73612,7.2584 -13.2173,17.2573 -19.06671,20.1079 -7.56286,3.6856 -12.27099,6.9866 -20.74949,14.5482 -4.99497,4.4548 -9.97292,7.6401 -17.37908,11.1203 -7.16869,3.3686 -12.16953,6.5349 -16.16755,10.2363 -3.18367,2.9476 -7.01967,5.6682 -8.52444,6.0458 -4.41087,1.1071 -10.90402,6.1073 -20.7924,16.0118 -7.96394,7.9769 -9.94186,9.4344 -14.19491,10.46 -8.87395,2.14 -14.38838,5.9398 -20.56462,14.1705 -6.54675,8.7245 -8.61376,10.2786 -17.84855,13.4196 -3.70686,1.2608 -9.16721,3.99 -12.1341,6.065 -9.04667,6.3271 -17.83161,12.7754 -22.05784,16.1909 -2.20927,1.7855 -7.46378,5.0472 -11.67668,7.2482 -4.21291,2.201 -10.84245,6.8381 -14.73232,10.3047 -3.88987,3.4665 -9.28987,7.5798 -12,9.1406 -2.71013,1.5608 -5.75313,3.5546 -6.76222,4.4307 -1.00908,0.8761 -5.50908,3.4292 -10,5.6737 -5.54668,2.7721 -8.58142,4.938 -9.46285,6.7537 -0.71366,1.4701 -2.96366,3.9068 -5,5.4148 -2.03634,1.508 -5.65355,4.4178 -8.03824,6.4662 -3.12441,2.6838 -5.63893,3.906 -9,4.3745 -16.83904,2.3475 -31.79527,22.1762 -32.39339,42.9467 -0.23609,8.1986 -0.86081,13.8887 -1.69149,15.4064 -0.72443,1.3236 -1.26102,4.9236 -1.19242,8 0.42128,18.8927 0.19748,24.097 -1.27883,29.7379 -0.93571,3.5753 -1.60807,10.1334 -1.60807,15.6849 0,5.2473 -0.42276,10.6525 -0.93947,12.0115 -0.5167,1.3591 -1.46554,10.9509 -2.10852,21.3151 -0.71044,11.4516 -1.72963,20.2022 -2.598,22.306 -0.78592,1.9039 -1.68656,6.1789 -2.00141,9.5 -0.31486,3.321 -1.18192,7.919 -1.92682,10.2179 -0.82206,2.537 -1.37739,9.0219 -1.41296,16.5 -0.1117,23.4816 -0.97512,44.3367 -1.97747,47.7645 -0.55394,1.8943 -0.74741,5.7193 -0.42994,8.5 0.54898,4.8084 -3.08637,14.5384 -5.4409,14.5626 -0.96867,0.01 -5.29166,6.584 -5.00857,7.6166 1.62024,5.91 -11.49075,10.8501 -19.65594,7.4062 z m 375.74803,-510.2964 c 2.83556,-5.9503 2.42293,-9.7332 -1.06167,-9.7332 -4.30328,0 -14.1288,11.2775 -11.90071,13.6593 4.32456,4.623 9.65831,3.0075 12.96238,-3.9261 z m -73.74133,485.6035 c -4.82616,-0.8726 -8.78958,-2.1933 -10.00295,-3.3332 -1.1053,-1.0384 -4.53572,-3.0445 -7.62314,-4.4579 -12.96054,-5.9336 -17.59138,-14.7611 -17.07312,-32.5456 0.86333,-29.6261 31.89357,-67.114 51.23442,-61.8969 11.85489,3.1978 12.79513,3.2741 16.99739,1.3791 8.74179,-3.942 18.91728,-0.9507 18.94539,5.5693 0.0123,2.8448 0.90867,4.4708 4.50388,8.1697 6.85847,7.0564 6.28579,20.9531 -0.67551,16.3919 -1.68537,-1.1043 -4.80156,-1.5184 -11.03594,-1.4667 -7.17409,0.06 -9.28195,-0.2953 -12.10031,-2.0372 -9.42037,-5.8221 -27.68985,3.8358 -29.13492,15.4017 -0.36728,2.9397 -1.83125,8.4148 -3.25326,12.1669 -6.57151,17.3398 -1.75427,22.1545 17.21137,17.2027 4.4,-1.1489 10.5864,-2.6609 13.74756,-3.3602 3.16116,-0.6993 6.31116,-1.7336 7,-2.2985 1.24126,-1.018 13.67457,-7.7656 21.12164,-11.4628 3.279,-1.6279 5.70774,-2.2915 9.846,-2.6901 0.39337,-0.038 2.19337,-1.3408 4,-2.8953 5.06801,-4.3607 20.21404,-13.1244 26.50212,-15.3345 9.00147,-3.1638 18.4882,-8.651 25.78268,-14.913 1.1,-0.9443 5.15,-2.9529 9,-4.4637 3.85,-1.5107 9.80284,-4.9328 13.22853,-7.6046 3.4257,-2.6718 6.46955,-4.8578 6.76413,-4.8578 0.29458,0 2.95883,-1.9738 5.92057,-4.3862 2.96173,-2.4123 7.79287,-5.1724 10.73587,-6.1334 3.7992,-1.2406 7.10159,-3.4134 11.388,-7.4926 3.9481,-3.7572 8.74399,-7.0125 13.85987,-9.4077 8.17051,-3.8253 13.05531,-7.1879 20.60301,-14.1825 2.475,-2.2937 6.525,-5.4206 9,-6.9487 2.475,-1.5281 7.2,-5.3284 10.5,-8.445 3.3,-3.1167 9.6,-7.5908 14,-9.9426 5.27262,-2.8181 10.55702,-6.786 15.50002,-11.6387 4.125,-4.0495 9.8579,-8.6137 12.7398,-10.1427 8.51418,-4.5172 16.65718,-10.5132 19.81188,-14.5883 3.2895,-4.2491 13.8012,-11.6916 16.5132,-11.6916 0.9652,0 3.7079,-2.074 6.095,-4.6088 2.387,-2.5348 6.1048,-5.7392 8.2617,-7.1209 2.1569,-1.3816 4.4069,-2.9121 5,-3.4011 6.8595,-5.6547 23.0232,-16.9299 28.7616,-20.063 1.7062,-0.9315 4.0504,-2.5067 5.2095,-3.5003 11.8369,-10.1481 16.5522,-13.8028 19.2783,-14.9418 1.7653,-0.7376 4.4245,-2.9339 5.9093,-4.8805 3.2315,-4.2367 9.0995,-8.6068 15.9197,-11.8558 2.75,-1.3101 8.825,-5.9313 13.5,-10.2694 4.675,-4.3381 10.3,-9.2235 12.5,-10.8564 2.2,-1.6329 6.025,-4.6218 8.5,-6.642 2.475,-2.0202 7.2,-5.1078 10.5,-6.8612 6.6242,-3.5198 11.1626,-7.3604 12.0678,-10.2124 0.3249,-1.0238 2.2426,-2.9111 4.2615,-4.1939 2.0189,-1.2828 6.499,-4.8649 9.9558,-7.9601 3.4568,-3.0952 8.1818,-6.5747 10.5,-7.7324 2.3182,-1.1576 6.5262,-4.3553 9.3511,-7.1059 3.6199,-3.5246 5.6865,-4.8388 7,-4.4512 4.1184,1.2151 11.7548,-5.3209 16.1735,-13.8429 2.874,-5.5427 8.1244,-10.9096 12.7741,-13.0575 6.3417,-2.9295 12.2322,-7.2874 12.9631,-9.5904 0.9087,-2.8629 4.9583,-6.3185 10.4531,-8.9198 2.475,-1.1716 8.55,-6.076 13.5,-10.8986 7.8859,-7.6828 9.7427,-8.9807 15,-10.4842 7.2384,-2.0701 10.9851,-5.328 14.0989,-12.2595 2.3225,-5.17 8.1678,-11.3442 21.9011,-23.1337 3.3,-2.8329 7.8,-6.7457 10,-8.6951 2.2,-1.9494 7.6233,-6.4038 12.0519,-9.8986 4.4285,-3.4949 9.3024,-7.9939 10.8309,-9.9978 1.5284,-2.004 4.5768,-4.8333 6.7741,-6.2874 2.3855,-1.5786 4.9458,-4.5199 6.3548,-7.3006 2.2262,-4.3932 8.4952,-10.9768 10.4522,-10.9768 0.4919,0 2.3296,-2.1375 4.0837,-4.75 1.7541,-2.6125 3.7549,-5.0785 4.4462,-5.48 3.326,-1.9315 15.8974,-13.8012 19.4745,-18.3875 2.7634,-3.5429 26.5229,-28.7469 34.2817,-36.3659 6.0491,-5.9402 7.75,-8.2316 7.75,-10.4411 0,-2.1459 1.4176,-4.1909 5.8598,-8.4531 3.2229,-3.0924 6.1982,-6.7474 6.6118,-8.1224 0.6881,-2.2876 2.5577,-4.3494 8.0284,-8.8534 3.4209,-2.8165 10.1927,-11.5239 11.0018,-14.1466 1.2735,-4.128 8.1776,-15.7609 12.9879,-21.8836 2.4807,-3.1575 4.5103,-6.0751 4.5103,-6.4835 0,-0.4085 1.8346,-3.4442 4.0768,-6.7461 2.2423,-3.3018 7.1529,-11.9396 10.9124,-19.1951 3.7596,-7.2555 8.8248,-16.7917 11.2559,-21.1917 11.1478,-20.1759 22.4327,-74.1587 16.8969,-80.829 -0.5799,-0.6986 -1.3557,-3.2729 -1.724,-5.7207 -1.6795,-11.1596 -12.2021,-28.1552 -18.3305,-29.6066 -1.4231,-0.337 -5.8542,-2.1865 -9.8469,-4.1099 -11.8656,-5.7162 -35.0283,-5.5061 -47.2406,0.4285 -4.675,2.2718 -9.625,4.4605 -11,4.8636 -1.375,0.4032 -4.6225,1.7998 -7.2168,3.1036 -2.5942,1.3037 -6.3363,2.3705 -8.3157,2.3705 -4.3919,0 -6.7559,1.178505 -12.0487,6.006905 -2.2446,2.047695 -6.547,4.645595 -9.5607,5.773195 -5.481,2.0507 -12.4431,5.376 -31.5298,15.0594 -5.5944,2.8382 -10.4842,5.1605 -10.8661,5.1605 -1.287,0 -13.3913,9.9677 -17.4457,14.3663 -3.2858,3.5646 -5.7094,4.965 -13.2683,7.6663 -6.6488,2.376 -10.3725,4.3786 -13.2482,7.1248 -6.9948,6.6796 -12.8534,10.629 -18,12.1343 -10.0183,2.93 -14.811,3.7973 -15.757,2.8512 -2.4083,-2.4082 8.0611,-16.4538 13.0008,-17.4417 1.5426,-0.3085 4.5431,-1.9425 6.6679,-3.6311 2.1248,-1.6886 4.731,-3.0701 5.7915,-3.0701 3.5347,0 5.6977,-1.952 6.3854,-5.7622 1.0378,-5.7497 1.976,-6.8919 7.8823,-9.5959 6.2971,-2.8829 11.7135,-6.8567 19.531,-14.3292 3.5724,-3.4147 7.0793,-5.7347 10,-6.6154 2.4739,-0.7459 8.3524,-3.8442 13.0631,-6.885 8.3007,-5.358095 16.3399,-8.8015 21.1141,-9.0437 2.8389,-0.144 5.5498,-2.3437 7.474,-6.0646 0.9804,-1.896 3.7739,-3.9197 8.6476,-6.2647 3.9596,-1.9051 8.3243,-4.1249 9.6993,-4.9328 7.4384,-4.3707 27.6875,-11.5914 36.5,-13.0157 2.2,-0.3555 6.1831,-1.7893 8.8513,-3.1862 3.5,-1.8323 6.7034,-2.6143 11.5,-2.8073 3.6568,-0.1471 9.5737,-0.5685 13.1487,-0.9363 5.8378,-0.6006 6.9585,-0.406 11,1.9108 7.5067,4.3032 12.2561,6.1974 17.5,6.9797 6.4154,0.957 7.96,1.8306 9.4052,5.3197 0.6488,1.5662 2.4318,3.5873 3.9623,4.4914 7.112,4.2012 13.1843,12.6464 12.0345,16.7374 -1.3986,4.976305 -0.9332,7.153005 2.098,9.8129 1.65,1.4478 3,3.5784 3,4.7346 0,1.1562 1.125,5.4098 2.5,9.4525 4.0535,11.9177 2.5638,49.2823 -2.2788,57.1599 -1.1293,1.837 -2.3747,5.1401 -2.7676,7.3401 -0.3929,2.2 -1.0439,4.45 -1.4467,5 -0.4028,0.55 -1.0238,3.925 -1.3801,7.5 -0.4831,4.8476 -1.3698,7.5168 -3.4883,10.5 -1.5623,2.2 -3.1647,5.35 -3.5608,7 -0.3962,1.65 -1.8193,4.1559 -3.1625,5.5688 -1.402,1.4746 -3.295,5.6462 -4.4444,9.7938 -1.1011,3.9738 -3.7041,10.0266 -5.7844,13.4507 -2.0802,3.4242 -5.1919,9.2382 -6.9149,12.9201 -1.7229,3.6819 -5.2042,8.8481 -7.7362,11.4805 -2.5319,2.6323 -4.8481,5.9111 -5.1472,7.2861 -0.9365,4.306 -2.4306,6.5912 -8.261,12.6349 -3.112,3.2258 -7.8077,9.5371 -10.435,14.0252 -2.6838,4.5847 -7.4266,10.719 -10.8242,14 -6.9323,6.6945 -22.112,24.6888 -26.4378,31.3399 -2.4929,3.833 -5.685,7.4495 -18.6269,21.1034 -0.9333,0.9846 -3.1833,2.5557 -5,3.4914 -3.7552,1.9339 -6.4525,4.725 -7.3748,7.6308 -0.8364,2.6352 -2.8657,5.0852 -9.1816,11.0847 -2.8893,2.7446 -6.4276,6.835 -7.863,9.0899 -1.4353,2.2549 -4.7708,5.8303 -7.4122,7.9454 -2.6414,2.1151 -6.0235,5.7773 -7.5158,8.1383 -1.5031,2.3778 -4.5516,5.314 -6.8346,6.5826 -6.1592,3.4227 -23.0689,19.3941 -27.3252,25.809 -3.4662,5.2241 -10.8693,12.806 -17.1814,17.5964 -1.4697,1.1154 -5.7879,5.4031 -9.5958,9.5281 -8.2673,8.9557 -14.4119,13.0767 -24.6118,16.5065 -7.4084,2.4911 -7.6516,2.6786 -10,7.7102 -2.4361,5.2193 -12.1429,16.0576 -17.1181,19.1132 -1.4911,0.9159 -4.6163,4.4788 -6.945,7.9176 -5.3226,7.8601 -6.2367,8.78 -11.2557,11.3273 -2.3816,1.2087 -5.9294,4.4932 -8.4986,7.868 -4.6015,6.0443 -8.7502,8.5572 -14.1273,8.5572 -3.9133,0 -10.8987,4.6254 -17.4623,11.5628 -3.0334,3.2061 -6.18,5.5284 -8,5.9042 -5.468,1.1292 -7.9258,2.9869 -9.4819,7.1669 -2.1799,5.8551 -7.2114,10.3967 -20.9017,18.8661 -0.889,0.55 -1.8414,1.2784 -2.1164,1.6188 -0.275,0.3404 -2.9186,1.8389 -5.8747,3.33 -3.3893,1.7097 -8.7454,6.1387 -14.5,11.9901 -5.0189,5.1035 -11.0653,10.2656 -13.4363,11.4715 -8.4244,4.2844 -14.8002,9.0146 -23.2487,17.2479 -4.7079,4.5879 -10.5579,9.3764 -13,10.6411 -2.4422,1.2647 -6.4653,4.1258 -8.9403,6.3579 -5.7477,5.1837 -9.9705,7.8332 -12.5,7.8427 -4.4153,0.016 -8.354,3.6901 -9.99,9.3175 -1.5607,5.3686 -7.3527,11.6825 -10.7168,11.6825 -2.6327,0 -9.7237,4.6184 -15.7166,10.2362 -3.3655,3.155 -7.3471,6.0079 -8.8479,6.3399 -7.8566,1.7376 -9.4734,2.696 -12.0879,7.1653 -4.988,8.5266 -9.9168,13.1376 -15.9032,14.8779 -4.5455,1.3214 -6.8043,2.9032 -13.1908,9.2375 -9.0191,8.9454 -19.9005,17.1528 -27.53158,20.766 -5.4435,2.5773 -11.6512,8.5797 -16.6216,16.0718 -2.2999,3.4667 -3.5245,4.2013 -10.41232,6.2461 -5.872,1.7432 -8.9375,3.3382 -12.3737,6.4383 -2.5123,2.2665 -6.3768,5.7629 -8.5877,7.7698 -2.2109,2.0069 -6.3431,5.4738 -9.1826,7.7043 -2.8395,2.2304 -5.4766,4.5632 -5.8602,5.1839 -0.3836,0.6206 -2.5603,1.9448 -4.8373,2.9425 -2.27685,0.9977 -8.08435,5.2286 -12.90549,9.4021 -4.82114,4.1735 -9.99614,7.8618 -11.5,8.1962 -5.68235,1.2636 -6.56287,1.7363 -11.68277,6.2707 -8.109,7.1818 -14.18643,11.5402 -24.89139,17.8508 -5.41193,3.1904 -13.68902,9.0632 -18.39352,13.0507 -4.7045,3.9875 -9.27656,7.2488 -10.16012,7.2473 -5.13693,-0.01 -15.06337,3.448 -18.23415,6.3491 -4.55226,4.165 -7.39388,5.9061 -13.14458,8.0537 -2.62473,0.9803 -7.41149,3.7662 -10.63724,6.1911 -3.22575,2.4248 -6.47824,4.4381 -7.22776,4.4739 -2.11102,0.101 -13.22573,6.1022 -17.30887,9.3457 -8.27988,6.5772 -35.30206,10.7728 -51.04719,7.9259 z M 1566.1035,84.94706 c -0.3667,-0.3667 -0.9667,-0.3667 -1.3334,0 -0.3666,0.3667 -0.067,0.6667 0.6667,0.6667 0.7333,0 1.0333,-0.3 0.6667,-0.6667 z m 522.876,661.7358 c -0.6831,-1.1053 0.8944,-2.2987 1.8178,-1.3753 0.9508,0.9508 0.7736,2.3062 -0.3015,2.3062 -0.5175,0 -1.1999,-0.419 -1.5163,-0.9309 z m 8.0124,-22.3191 c -2.3125,-7.5657 -1.2798,-10.8295 4.3326,-13.6928 3.4863,-1.7785 3.8731,-2.3894 4.4161,-6.9746 0.9643,-8.1418 5.6733,-13.3634 5.7109,-6.3326 0.025,4.6209 2.1684,7.4867 6.7353,9.0043 6.2105,2.0638 5.0036,8.2623 -1.9042,9.7795 -1.7334,0.3807 -5.5753,2.6664 -8.5376,5.0792 -5.3185,4.332 -9.9728,5.6897 -10.7531,3.137 z m -976.213,-364.3009 c -0.6722,-1.7517 3.2422,-6.4491 5.374,-6.4491 0.7522,0 2.3336,-0.9 3.5143,-2 3.7548,-3.4982 5.8317,-0.9547 3.2682,4.0026 -2.7746,5.3655 -10.6925,8.2616 -12.1565,4.4465 z m 11.6579,-13.5078 c 0,-1.2161 4.7762,-7.6055 10.0478,-13.4413 4.8698,-5.3912 9.7913,-13.4456 10.558,-17.2792 1.2036,-6.0179 10.8287,-15.2208 15.9191,-15.2208 4.9568,0 6.2279,-1.225 4.5412,-4.3766 -2.1196,-3.9604 3.5198,-12.226 13.4635,-19.7335 5.6151,-4.2395 6.3963,-5.3838 4.2204,-6.1816 -1.7893,-0.6561 5.8416,-8.4125 10.75,-10.9267 4.3855,-2.2464 14.011,-11.8816 16.7035,-16.7203 1.188,-2.135 2.4543,-3.0613 4.1849,-3.0613 3.3071,0 6.6574,-1.3763 9.1746,-3.7687 2.9453,-2.7994 5.9247,-4.2313 8.8039,-4.2313 1.6436,0 2.7218,-0.7042 3.1516,-2.0582 0.4827,-1.521 1.3484,-1.9777 3.3173,-1.75 3.4709,0.4015 3.6151,3.3082 0.1642,3.3082 -1.8123,0 -2.7751,0.7512 -3.5,2.731 -1.7769,4.8528 -14.1676,16.769 -17.4367,16.769 -3.3892,0 -9.4975,6.2317 -8.7837,8.9613 1.018,3.8927 -12.8915,22.2353 -19.4224,25.6125 -3.3662,1.7407 -7.8572,6.4156 -7.8572,8.1788 0,0.7003 -2.6402,3.8548 -5.8672,7.0103 -3.5427,3.4641 -6.3505,7.2342 -7.087,9.5158 -1.8962,5.8738 -17.7875,21.3329 -22.7999,22.1797 -2.9813,0.5037 -5.5969,2.3233 -11.6375,8.0956 -7.247,6.9254 -10.6084,8.9493 -10.6084,6.3873 z m 134.0839,-139.2262 c 0.5726,-1.2567 3.0082,-3.3284 5.4124,-4.6039 2.4043,-1.2754 5.7621,-3.8472 7.4618,-5.7151 1.6997,-1.8679 3.9313,-3.3961 4.9592,-3.3961 2.5674,0 3.6832,3.2195 1.5595,4.5 -0.9122,0.55 -4.806,3.3625 -8.6529,6.25 -7.6058,5.7088 -12.621,7.0935 -10.74,2.9651 z m 31.0904,-24.0296 c -5.757,-6.128 4.0856,-9.8305 11.5757,-4.3545 1.9603,1.4332 1.5152,2.3149 -2.3072,4.5702 -4.5646,2.6932 -6.5798,2.6463 -9.2685,-0.2157 z"
       id="path2" />
  </g>
</svg>
